<svg width="24.266724" height="28.000000" viewBox="0 0 24.2667 28" fill="none" xmlns="http://www.w3.org/2000/svg" xmlns:xlink="http://www.w3.org/1999/xlink">
	<desc>
			Created with Pixso.
	</desc>
	<defs/>
	<path d="M17.6831 0C16.2329 0.100098 14.5378 1.02637 13.55 2.23254C12.649 3.32678 11.9077 4.95203 12.1968 6.53149C13.7812 6.58069 15.4186 5.63232 16.3672 4.40576C17.2546 3.26404 17.9261 1.64905 17.6831 0ZM18.0165 6.53333C19.9465 6.53333 21.9904 7.57727 23.4446 9.37622C18.677 11.9705 19.4495 18.7283 24.2667 20.5377C23.6044 21.9951 23.2865 22.645 22.4325 23.936C21.241 25.7367 19.5631 27.9806 17.4802 27.9963C16.6241 28.0052 16.0624 27.7496 15.4568 27.474C14.7549 27.1545 13.9939 26.8082 12.6471 26.8157C11.3076 26.8223 10.5344 27.1643 9.82288 27.479C9.20166 27.7539 8.62732 28.0079 7.76416 27.9998C5.68311 27.9823 4.09216 25.9574 2.90063 24.1567C-0.428589 19.1241 -0.780151 13.2158 1.27417 10.0734C2.7356 7.8418 5.04028 6.53687 7.20483 6.53687C9.40833 6.53687 10.795 7.73669 12.6204 7.73669C14.3907 7.73669 15.4685 6.53333 18.0165 6.53333Z" clip-rule="evenodd" fill="#495567" fill-opacity="1.000000" fill-rule="evenodd"/>
</svg>
