<svg width="23.904419" height="27.065796" viewBox="0 0 23.9044 27.0658" fill="none" xmlns="http://www.w3.org/2000/svg" xmlns:xlink="http://www.w3.org/1999/xlink">
	<desc>
			Created with Pixso.
	</desc>
	<defs/>
	<path id="Shape" d="M3.60535 0.344971C2.90796 -0.0748291 2.07703 -0.112305 1.35229 0.237061L13.5039 12.4147L17.4772 8.42297L3.60535 0.344971ZM0 2.42139C0 2.0498 0.0825195 1.68872 0.235718 1.36414L12.3849 13.5391L0.237915 25.7437C0.0830078 25.426 0 25.0702 0 24.697L0 2.42139ZM22.7456 11.4906C22.7504 11.4933 22.7556 11.4965 22.7604 11.4996C23.4767 11.9342 23.9044 12.6943 23.9044 13.5327C23.9044 14.3712 23.4767 15.1313 22.7604 15.5664C22.7556 15.5691 18.8966 17.819 18.8966 17.819L14.6241 13.5375L18.8939 9.24768L22.7456 11.4906ZM13.5056 14.662L1.37341 26.8517C1.69543 27.0007 2.03796 27.0658 2.38 27.0658C2.80237 27.0658 3.22363 26.9648 3.60535 26.7355L17.4799 18.6451L13.5056 14.662Z" clip-rule="evenodd" fill="#495567" fill-opacity="1.000000" fill-rule="evenodd"/>
</svg>
