<svg width="96.000000" height="96.000000" viewBox="0 0 96 96" fill="none" xmlns="http://www.w3.org/2000/svg" xmlns:xlink="http://www.w3.org/1999/xlink">
	<desc>
			Created with Pixso.
	</desc>
	<defs/>
	<circle id="Oval Copy 3" cx="48.000000" cy="48.000000" r="48.000000" fill="#FCB72B" fill-opacity="1.000000"/>
	<circle id="Oval Copy 3" cx="48.000000" cy="48.000000" r="48.000000" stroke="#979797" stroke-opacity="0" stroke-width="0.000000"/>
	<path id="Path" d="M45.0698 62.301C44.8521 62.301 44.6389 62.3895 44.4851 62.5432C44.3314 62.697 44.2429 62.9105 44.2429 63.1279C44.2429 63.3453 44.3314 63.5588 44.4851 63.7125C44.6389 63.8662 44.8521 63.9547 45.0698 63.9547C45.2872 63.9547 45.5004 63.8662 45.6544 63.7125C45.8081 63.5588 45.8966 63.3462 45.8966 63.1279C45.8966 62.9105 45.8081 62.697 45.6544 62.5432C45.5004 62.3895 45.2872 62.301 45.0698 62.301Z" fill="#000000" fill-opacity="1.000000" fill-rule="nonzero"/>
	<path id="Shape" d="M59.6121 39.7131L61.5391 48.4188C65.8654 48.5787 69.3359 52.1482 69.3359 56.5128C69.3359 56.9696 68.9658 57.3397 68.509 57.3397L67.1564 57.3397C67.3918 57.9127 67.5168 58.5303 67.5168 59.1614C67.5168 61.8058 65.3654 63.9573 62.7209 63.9573C62.689 63.9573 62.6573 63.9557 62.6254 63.9547L48.3773 63.9547C47.9205 63.9547 47.5504 63.5846 47.5504 63.1278C47.5504 62.6714 47.9205 62.3009 48.3773 62.3009L59.1005 62.3009C58.3691 61.4592 57.925 60.3613 57.925 59.1614C57.925 58.5303 58.05 57.9127 58.2855 57.3397L57.2384 57.3397C56.4758 58.3721 55.259 58.9961 53.957 58.9961L42.0326 58.9961C42.0433 59.0493 42.0491 59.1049 42.0491 59.1614C42.0491 61.8058 39.8976 63.9573 37.2532 63.9573C37.2213 63.9573 37.1896 63.9557 37.1576 63.9547L27.8269 63.9547C27.3701 63.9547 27 63.5846 27 63.1278C27 62.6714 27.3701 62.3009 27.8269 62.3009L33.6328 62.3009C32.9015 61.4592 32.4574 60.3613 32.4574 59.1614C32.4574 59.1049 32.4631 59.0493 32.4739 58.9961L27.8269 58.9961C27.3701 58.9961 27 58.6259 27 58.1692L27 57.5442C27 53.9463 28.5155 50.6963 30.9415 48.3978L29.1105 46.5668C27.9176 46.3875 27 45.3558 27 44.1139L27 39.8126C27 39.4861 27.0204 39.1639 27.0598 38.8474C27.0598 38.8427 27.0591 38.8378 27.0591 38.8326C27.0591 38.7457 27.0726 38.6621 27.0975 38.5833C27.6886 34.8804 30.9044 32.0413 34.7714 32.0413L40.1056 32.0413C41.4731 32.0413 42.5862 33.1539 42.5862 34.5219L42.5862 41.7751C42.845 41.6833 43.123 41.6329 43.4131 41.6329L46.4312 41.6329C47.7988 41.6329 48.9119 42.7457 48.9119 44.1136C48.9119 45.0312 48.4105 45.8336 47.6676 46.2628C47.8546 46.6127 47.9612 47.0118 47.9612 47.4353L47.9612 54.0344L51.5342 54.0344C52.7271 54.0344 53.8265 53.3859 54.4034 52.3419C54.6702 51.8591 54.8116 51.3119 54.812 50.7603L54.8162 48.0126C54.8169 47.5564 55.187 47.1869 55.6431 47.1869L55.644 47.1869C56.1003 47.1876 56.47 47.5577 56.47 48.0139L56.47 48.0151L56.4658 50.7622C56.4651 51.5919 56.2523 52.4149 55.8508 53.1417C54.9832 54.7124 53.3291 55.6886 51.5342 55.6886L47.1344 55.6886C46.6776 55.6886 46.3075 55.3184 46.3075 54.8617L46.3075 47.4357C46.3075 46.9724 45.9305 46.5956 45.4677 46.5956L39.6021 46.5956C33.6328 46.5956 28.7635 51.3978 28.6556 57.3423L30.354 57.3423C30.5691 55.5177 31.4922 53.8601 32.9609 52.7051L32.9658 52.7012C34.1993 51.7328 35.6819 51.2208 37.2532 51.2208C40.8046 51.2208 43.74 53.8994 44.1505 57.3423L53.957 57.3423C54.8314 57.3423 55.6409 56.8691 56.0701 56.1074L59.9984 49.1107L57.9229 39.7324L56.4758 39.7324L56.4758 41.3988C56.4758 41.8556 56.1056 42.2257 55.6489 42.2257C55.1921 42.2257 54.822 41.8556 54.822 41.3988L54.822 39.7324L50.5659 39.7324C49.3805 39.7324 48.416 38.7679 48.416 37.5826C48.416 36.3972 49.3805 35.4327 50.5659 35.4327L52.5259 35.4327C52.8246 34.6598 53.5753 34.1097 54.4521 34.1097L59.3334 34.1097C59.9484 34.1097 60.501 34.3804 60.8795 34.8083C61.2675 34.5568 61.7294 34.4102 62.2249 34.4102L63.8785 34.4102C64.3353 34.4102 64.7054 34.7803 64.7054 35.2369L64.7054 38.5444C64.7054 39.0012 64.3353 39.3713 63.8785 39.3713L62.2249 39.3713C61.7435 39.3713 61.2942 39.2332 60.9135 38.9951C60.5908 39.3782 60.1321 39.6427 59.6121 39.7131ZM43.4131 43.2871L46.4312 43.2871C46.887 43.2871 47.2581 43.6578 47.2581 44.1139C47.2581 44.5697 46.887 44.9408 46.4312 44.9408L43.4131 44.9408C42.957 44.9408 42.5862 44.5697 42.5862 44.1139C42.5862 43.6578 42.957 43.2871 43.4131 43.2871ZM28.6537 39.8126C28.6537 39.7616 28.6564 39.7108 28.6576 39.6598L37.7058 39.6598C38.1625 39.6598 38.5326 39.2897 38.5326 38.8329C38.5326 38.3762 38.1625 38.0061 37.7058 38.0061L28.9264 38.0061C29.699 35.5118 32.0269 33.6953 34.7714 33.6953L40.1053 33.6953C40.5614 33.6953 40.9321 34.0662 40.9321 34.5222L40.9321 44.1139C40.9321 44.5697 40.5614 44.9408 40.1053 44.9408L29.4803 44.9408C29.0245 44.9408 28.6537 44.5697 28.6537 44.1139L28.6537 39.8126ZM31.4771 46.5946L33.3691 46.5946C32.9719 46.8213 32.5885 47.0697 32.2196 47.3372L31.4771 46.5946ZM40.3954 59.1614C40.3954 60.8833 39.0029 62.2854 37.2852 62.3026C37.2745 62.3022 37.2639 62.3009 37.2532 62.3009L37.158 62.3009C35.4694 62.2502 34.1111 60.8619 34.1111 59.1614C34.1111 59.1049 34.1053 59.0493 34.0946 58.9961L40.4119 58.9961C40.4011 59.0493 40.3954 59.1049 40.3954 59.1614ZM32.0226 57.3423C32.2274 56.0287 32.9174 54.8419 33.9829 54.0051C33.9855 54.0034 33.9877 54.0012 33.9904 53.9996C34.929 53.2638 36.0571 52.8746 37.2532 52.8746C39.8915 52.8746 42.085 54.8142 42.4832 57.3423L32.0226 57.3423ZM62.2249 36.0638L63.0516 36.0638L63.0516 37.7177L62.2249 37.7177C61.7687 37.7177 61.3979 37.3468 61.3979 36.8907C61.3979 36.4349 61.7687 36.0638 62.2249 36.0638ZM50.0698 37.5826C50.0698 37.3091 50.2924 37.0864 50.5659 37.0864L52.3876 37.0864L52.3876 37.6678C52.3876 37.8087 52.4019 37.9459 52.4286 38.0787L50.5659 38.0787C50.2924 38.0787 50.0698 37.8562 50.0698 37.5826ZM55.6489 38.0787L54.4521 38.0787C54.2258 38.0787 54.0414 37.8947 54.0414 37.6678L54.0414 36.1743C54.0414 35.9479 54.2258 35.7634 54.4521 35.7634L59.3334 35.7634C59.5598 35.7634 59.7441 35.9479 59.7441 36.1743L59.7441 37.6678C59.7441 37.8947 59.5598 38.0787 59.3334 38.0787L55.6489 38.0787ZM65.863 59.1614C65.863 60.8833 64.4706 62.2854 62.7529 62.3026C62.7422 62.3022 62.7316 62.3009 62.7209 62.3009L62.6256 62.3009C60.937 62.2502 59.5789 60.8619 59.5789 59.1614C59.5789 58.5044 59.7836 57.8694 60.1609 57.3397L65.281 57.3397C65.6583 57.8694 65.863 58.5044 65.863 59.1614ZM58.2031 55.6859L61.3563 50.0701C64.5762 50.1292 67.2274 52.5597 67.6292 55.6859L58.2031 55.6859Z" clip-rule="evenodd" fill="#495567" fill-opacity="1.000000" fill-rule="evenodd"/>
	<path id="Path" d="M55.6489 45.5332C56.1056 45.5332 56.4758 45.1631 56.4758 44.7064C56.4758 44.2496 56.1056 43.8795 55.6489 43.8795L55.646 43.8795C55.1893 43.8795 54.8204 44.2496 54.8204 44.7064C54.8204 45.1631 55.1923 45.5332 55.6489 45.5332Z" fill="#000000" fill-opacity="1.000000" fill-rule="nonzero"/>
</svg>
