<svg width="96.000000" height="96.000000" viewBox="0 0 96 96" fill="none" xmlns="http://www.w3.org/2000/svg" xmlns:xlink="http://www.w3.org/1999/xlink">
	<desc>
			Created with Pixso.
	</desc>
	<defs/>
	<circle id="Oval Copy 4" cx="48.000000" cy="48.000000" r="48.000000" fill="#FCB72B" fill-opacity="1.000000"/>
	<circle id="Oval Copy 4" cx="48.000000" cy="48.000000" r="48.000000" stroke="#979797" stroke-opacity="0" stroke-width="0.000000"/>
	<path id="Combined Shape" d="M66 46L64.1714 46L67.9834 62.5167C67.9949 62.5663 68.0005 62.6167 68.0005 62.6666C68.0005 62.816 67.9502 62.9626 67.8553 63.0818C67.7289 63.2408 67.5366 63.3335 67.3334 63.3334L66.6667 63.3334C66.6667 65.9106 64.5774 68 62 68C59.4227 68 57.3334 65.9106 57.3334 63.3334L45.3334 63.3334C45.3334 65.9106 43.244 68 40.6667 68C38.0894 68 36 65.9106 36 63.3334L28.6667 63.3334C28.2985 63.3334 28 63.0349 28 62.6666L28 60C28 59.6318 28.2985 59.3334 28.6667 59.3334L32 59.3334L32 58L30 58C29.6318 58 29.3334 57.7015 29.3334 57.3334L29.3334 54.6666C29.3334 54.2985 29.6318 54 30 54L32.0533 54C32.3845 51.7061 34.349 50.0027 36.6667 50L38.6667 50L38.6667 43.3334L37.3334 43.3334L37.3334 45.3334C37.3334 46.4379 36.438 47.3334 35.3334 47.3334L28.6667 47.3334C28.3971 47.3333 28.1541 47.1709 28.0509 46.9218C28.0167 46.8392 28.0001 46.7527 28.0001 46.6669C28.0001 46.4934 28.0679 46.3229 28.1953 46.1953L29.724 44.6666L28.1953 43.1379C28.0679 43.0105 28.0001 42.84 28.0001 42.6665C28.0001 42.5807 28.0167 42.494 28.0509 42.4116C28.1541 42.1625 28.3971 42 28.6667 42L33.3334 42L33.3334 40C33.3334 38.8954 34.2288 38 35.3334 38L38.6667 38L38.6667 30.6666C38.6667 29.1938 39.8606 28 41.3334 28L44 28C45.4728 28 46.6667 29.1938 46.6667 30.6666L46.6667 41.4794L48.7487 42L54 42C54.3682 42 54.6667 42.2985 54.6667 42.6666L54.6667 45.3334C54.6667 45.7015 54.3682 46 54 46L48.6667 46C48.6121 46 48.5576 45.9933 48.5046 45.98L46.6667 45.5206L46.6667 47.3334L54 47.3334C54.3682 47.3334 54.6667 47.6318 54.6667 48L54.6667 55.3334C55.7712 55.3334 56.6667 56.2288 56.6667 57.3334L56.6667 58L58.6667 58L58.6667 44.015C58.6586 45.1127 57.7664 46 56.6667 46C55.5621 46 54.6667 45.1046 54.6667 44C54.6667 42.8954 55.5621 42 56.6667 42C57.7664 42 58.6586 42.8873 58.6667 43.985L58.6667 40.1573L57.588 38L54 38C53.6318 38 53.3334 37.7015 53.3334 37.3334L53.3334 34.6666C53.3334 34.2985 53.6318 34 54 34L58 34C58.3682 34 58.6667 34.2985 58.6667 34.6666L58.6667 37.176L59.7454 39.3334L66 39.3334C66.3682 39.3334 66.6667 39.6318 66.6667 40L66.6667 45.3334C66.6667 45.7015 66.3682 46 66 46ZM41.3334 29.3334C40.5969 29.3334 40 29.9303 40 30.6666L40 33.3334L42 33.3334L42 32C42 31.6318 42.2985 31.3334 42.6667 31.3334L45.3334 31.3334L45.3334 30.6666C45.3334 29.9303 44.7365 29.3334 44 29.3334L41.3334 29.3334ZM28 32.6666L36.6666 32.6666L36.6666 34L28 34L28 32.6666ZM42.6667 34.6666L40 34.6666L40 35.7706L45.3334 34.1707L45.3334 32.6666L43.3334 32.6666L43.3334 34C43.3334 34.3682 43.0349 34.6666 42.6667 34.6666ZM29.3334 35.3334L37.3334 35.3334L37.3334 36.6666L29.3334 36.6666L29.3334 35.3334ZM54.6667 36.6666L57.3334 36.6666L57.3334 35.3334L54.6667 35.3334L54.6667 36.6666ZM45.3334 35.5626L40 37.1627L40 38.6666L45.3334 38.6666L45.3334 35.5626ZM34.6667 40L34.6667 42L38.6667 42L38.6667 39.3334L35.3334 39.3334C34.9652 39.3334 34.6667 39.6318 34.6667 40ZM45.3334 40L40 40L40 47.3334L45.3334 47.3334L45.3334 45.1874L43.1714 44.6467C42.8748 44.5724 42.6667 44.3058 42.6667 44L42.6667 41.3334C42.6667 41.1279 42.7614 40.9341 42.9232 40.8077C43.0851 40.6814 43.2961 40.6367 43.4954 40.6866L45.3334 41.146L45.3334 40ZM62.6667 40.6666L60 40.6666L60 44.6666L62.6667 44.6666L62.6667 40.6666ZM65.3334 40.6666L64 40.6666L64 44.6666L65.3334 44.6666L65.3334 40.6666ZM48.6667 43.3334C48.6121 43.3334 48.5576 43.3267 48.5046 43.3134L44 42.1874L44 43.4794L48.7487 44.6666L53.3334 44.6666L53.3334 43.3334L48.6667 43.3334ZM35.3334 46C35.7015 46 36 45.7015 36 45.3334L36 43.3334L30.276 43.3334L31.1381 44.1953C31.2682 44.3254 31.3333 44.4961 31.3333 44.6666C31.3333 44.8373 31.2682 45.0078 31.1381 45.1379L30.276 46L35.3334 46ZM57.3334 44C57.3334 43.6318 57.0349 43.3334 56.6667 43.3334C56.2986 43.3334 56.0001 43.6318 56.0001 44C56.0001 44.3682 56.2986 44.6666 56.6667 44.6666C57.0349 44.6666 57.3334 44.3682 57.3334 44ZM60 57.3334L60 62L66.4921 62L62.8 46L60 46L60 56L61.3334 56L61.3334 57.3334L60 57.3334ZM53.3334 48.6666L40 48.6666L40 50L51.3334 50C51.7015 50 52 50.2985 52 50.6666L52 55.3334L53.3334 55.3334L53.3334 48.6666ZM46.6667 62L48 62L48 54.6666C47.9978 52.8267 46.5067 51.3356 44.6667 51.3334L36.6667 51.3334C34.8267 51.3356 33.3356 52.8267 33.3334 54.6666L33.3334 62L34.6667 62L34.6667 55.3334C34.6667 54.2288 35.5621 53.3334 36.6667 53.3334L44.6667 53.3334C45.7712 53.3334 46.6667 54.2288 46.6667 55.3334L46.6667 62ZM50.6667 51.3334L47.9266 51.3334C48.826 52.209 49.3334 53.4109 49.3334 54.666L49.3334 58L50.6667 58L50.6667 51.3334ZM36 62L45.3334 62L45.3334 55.3334C45.3334 54.9651 45.0349 54.6666 44.6667 54.6666L36.6667 54.6666C36.2985 54.6666 36 54.9651 36 55.3334L36 62ZM30.6667 56.6666L32 56.6666L32 55.3334L30.6667 55.3334L30.6667 56.6666ZM37.3334 56L38.6666 56L38.6666 57.3334L37.3334 57.3334L37.3334 56ZM40 56L41.3334 56L41.3334 57.3334L40 57.3334L40 56ZM42.6666 56L44 56L44 57.3334L42.6666 57.3334L42.6666 56ZM62.6666 56L64 56L64 57.3334L62.6666 57.3334L62.6666 56ZM55.3334 57.3334C55.3334 56.9651 55.0349 56.6666 54.6667 56.6666L52 56.6666L52 58L55.3334 58L55.3334 57.3334ZM49.3334 59.3334L49.3334 62L58.6667 62L58.6667 59.3334L49.3334 59.3334ZM29.3334 62L32 62L32 60.6666L29.3334 60.6666L29.3334 62ZM37.3334 63.3334C37.3356 65.1733 38.8267 66.6644 40.6667 66.6666C42.5067 66.6644 43.9978 65.1733 44 63.3334L42.6667 63.3334C42.6667 64.4379 41.7712 65.3334 40.6667 65.3334C39.5621 65.3334 38.6667 64.4379 38.6667 63.3334L37.3334 63.3334ZM41.3334 63.3334L40 63.3334C40 63.7015 40.2985 64 40.6667 64C41.0349 64 41.3334 63.7015 41.3334 63.3334ZM58.6667 63.3334C58.6689 65.1733 60.16 66.6644 62 66.6666C63.8401 66.6644 65.3312 65.1733 65.3334 63.3334L64 63.3334C64 64.4379 63.1046 65.3334 62 65.3334C60.8955 65.3334 60 64.4379 60 63.3334L58.6667 63.3334ZM62.6667 63.3334L61.3334 63.3334C61.3334 63.7015 61.6318 64 62 64C62.3682 64 62.6667 63.7015 62.6667 63.3334Z" clip-rule="evenodd" fill="#495567" fill-opacity="1.000000" fill-rule="evenodd"/>
</svg>
