<svg width="96.000000" height="96.000000" viewBox="0 0 96 96" fill="none" xmlns="http://www.w3.org/2000/svg" xmlns:xlink="http://www.w3.org/1999/xlink">
	<desc>
			Created with Pixso.
	</desc>
	<defs/>
	<circle id="Oval" cx="48.000000" cy="48.000000" r="48.000000" fill="#FCB72B" fill-opacity="1.000000"/>
	<circle id="Oval" cx="48.000000" cy="48.000000" r="48.000000" stroke="#979797" stroke-opacity="0" stroke-width="0.000000"/>
	<path id="Combined Shape" d="M33.0105 24L53.7996 24C56.0063 24.0028 57.7944 25.791 57.7974 27.9979L57.7974 51.6541L63.1602 57.0184L62.0295 58.1489L54.137 50.2562C53.1877 49.2665 51.6467 49.1476 50.5571 49.9806C49.9915 50.4447 49.6479 51.126 49.6116 51.8573C49.6094 51.9003 49.6084 51.943 49.6084 51.9857C49.6084 52.6713 49.8799 53.3309 50.3669 53.8185L55.9639 59.4155C56.1184 59.5699 56.1982 59.7749 56.1982 59.9814C56.1982 60.1349 56.1543 60.2893 56.064 60.4246C54.0659 63.4141 53 66.9296 53 70.5248L53 70.5439L53 71.9744L33.0105 71.9744C30.8037 71.9716 29.0154 70.1833 29.0127 67.9766L29.0127 27.9979C29.0154 25.791 30.8037 24.0028 33.0105 24ZM30.6118 28.7975L56.1982 28.7975L56.1982 27.9979C56.1982 26.6733 55.124 25.5991 53.7996 25.5991L33.0105 25.5991C31.686 25.5991 30.6118 26.6733 30.6118 27.9979L30.6118 28.7975ZM55.2676 49.1241L56.1982 50.0549L56.1982 30.3966L30.6118 30.3966L30.6118 63.9786L50.6011 63.9786L50.6011 65.5779L30.6118 65.5779L30.6118 67.9766C30.6118 69.301 31.686 70.3752 33.0105 70.3752L51.4062 70.3752C51.4319 66.7393 52.4602 63.1803 54.3777 60.0906L49.2363 54.9491C48.4482 54.1606 48.0088 53.0935 48.0088 51.9846C48.0088 51.9166 48.0105 51.8484 48.0137 51.7802C48.0715 50.5986 48.6257 49.4965 49.5393 48.7456C51.2664 47.3937 53.7334 47.557 55.2676 49.1241ZM37.0085 38.3923L33.8103 38.3923C32.927 38.3923 32.2112 37.6765 32.2112 36.7931L32.2112 33.5948C32.2112 32.7115 32.927 31.9957 33.8103 31.9957L37.0085 31.9957C37.8918 31.9957 38.6077 32.7115 38.6077 33.5948L38.6077 36.7931C38.6077 37.6765 37.8918 38.3923 37.0085 38.3923ZM45.0042 38.3923L41.8059 38.3923C40.9226 38.3923 40.2068 37.6765 40.2068 36.7931L40.2068 33.5948C40.2068 32.7115 40.9226 31.9957 41.8059 31.9957L45.0042 31.9957C45.8875 31.9957 46.6033 32.7115 46.6033 33.5948L46.6033 36.7931C46.6033 37.6765 45.8875 38.3923 45.0042 38.3923ZM53 38.3923L49.8018 38.3923C48.9185 38.3923 48.2026 37.6765 48.2026 36.7931L48.2026 33.5948C48.2026 32.7115 48.9185 31.9957 49.8018 31.9957L53 31.9957C53.8833 31.9957 54.5991 32.7115 54.5991 33.5948L54.5991 36.7931C54.5991 37.6765 53.8833 38.3923 53 38.3923ZM37.0085 33.5948L33.8103 33.5948L33.8103 36.7931L37.0085 36.7931L37.0085 33.5948ZM45.0042 33.5948L41.8059 33.5948L41.8059 36.7931L45.0042 36.7931L45.0042 33.5948ZM53 33.5948L49.8018 33.5948L49.8018 36.7931L53 36.7931L53 33.5948ZM37.0085 46.3881L33.8103 46.3881C32.927 46.3881 32.2112 45.6722 32.2112 44.7888L32.2112 41.5906C32.2112 40.7073 32.927 39.9915 33.8103 39.9915L37.0085 39.9915C37.8918 39.9915 38.6077 40.7073 38.6077 41.5906L38.6077 44.7888C38.6077 45.6722 37.8918 46.3881 37.0085 46.3881ZM45.0042 46.3881L41.8059 46.3881C40.9226 46.3881 40.2068 45.6722 40.2068 44.7888L40.2068 41.5906C40.2068 40.7073 40.9226 39.9915 41.8059 39.9915L45.0042 39.9915C45.8875 39.9915 46.6033 40.7073 46.6033 41.5906L46.6033 44.7888C46.6033 45.6722 45.8875 46.3881 45.0042 46.3881ZM53 46.3881L49.8018 46.3881C48.9185 46.3881 48.2026 45.6722 48.2026 44.7888L48.2026 41.5906C48.2026 40.7073 48.9185 39.9915 49.8018 39.9915L53 39.9915C53.8833 39.9915 54.5991 40.7073 54.5991 41.5906L54.5991 44.7888C54.5991 45.6722 53.8833 46.3881 53 46.3881ZM37.0085 41.5906L33.8103 41.5906L33.8103 44.7888L37.0085 44.7888L37.0085 41.5906ZM45.0042 41.5906L41.8059 41.5906L41.8059 44.7888L45.0042 44.7888L45.0042 41.5906ZM53 41.5906L49.8018 41.5906L49.8018 44.7888L53 44.7888L53 41.5906ZM59.0767 43.7791L60.1548 42.6005L65.0591 47.0955C66.5442 48.4606 67.3901 50.3839 67.3921 52.4009L67.3921 71.9745L65.793 71.9745L65.793 52.4009C65.7927 50.8328 65.1345 49.3363 63.9802 48.2743L59.0767 43.7791ZM37.0085 54.3838L33.8103 54.3838C32.927 54.3838 32.2112 53.668 32.2112 52.7845L32.2112 49.5863C32.2112 48.703 32.927 47.9872 33.8103 47.9872L37.0085 47.9872C37.8918 47.9872 38.6077 48.703 38.6077 49.5863L38.6077 52.7845C38.6077 53.668 37.8918 54.3838 37.0085 54.3838ZM45.0042 54.3838L41.8059 54.3838C40.9226 54.3838 40.2068 53.668 40.2068 52.7845L40.2068 49.5863C40.2068 48.703 40.9226 47.9872 41.8059 47.9872L45.0042 47.9872C45.8875 47.9872 46.6033 48.703 46.6033 49.5863L46.6033 52.7845C46.6033 53.668 45.8875 54.3838 45.0042 54.3838ZM37.0085 49.5863L33.8103 49.5863L33.8103 52.7845L37.0085 52.7845L37.0085 49.5863ZM45.0042 49.5863L41.8059 49.5863L41.8059 52.7845L45.0042 52.7845L45.0042 49.5863ZM37.0085 62.3795L33.8103 62.3795C32.927 62.3795 32.2112 61.6637 32.2112 60.7803L32.2112 57.582C32.2112 56.6987 32.927 55.9829 33.8103 55.9829L37.0085 55.9829C37.8918 55.9829 38.6077 56.6987 38.6077 57.582L38.6077 60.7803C38.6077 61.6637 37.8918 62.3795 37.0085 62.3795ZM45.0042 62.3795L41.8059 62.3795C40.9226 62.3795 40.2068 61.6637 40.2068 60.7803L40.2068 57.582C40.2068 56.6987 40.9226 55.9829 41.8059 55.9829L45.0042 55.9829C45.8875 55.9829 46.6033 56.6987 46.6033 57.582L46.6033 60.7803C46.6033 61.6637 45.8875 62.3795 45.0042 62.3795ZM37.0085 57.582L33.8103 57.582L33.8103 60.7803L37.0085 60.7803L37.0085 57.582ZM45.0042 57.582L41.8059 57.582L41.8059 60.7803L45.0042 60.7803L45.0042 57.582ZM42.6055 67.177L44.2046 67.177L44.2046 68.7761L42.6055 68.7761L42.6055 67.177Z" clip-rule="evenodd" fill="#495567" fill-opacity="1.000000" fill-rule="evenodd"/>
</svg>
