<svg width="107.817139" height="28.560059" viewBox="0 0 107.817 28.5601" fill="none" xmlns="http://www.w3.org/2000/svg" xmlns:xlink="http://www.w3.org/1999/xlink">
	<desc>
			Created with Pixso.
	</desc>
	<defs/>
	<path id="scoot" d="M107.097 23.2L107.097 28L98.6973 28C97.7905 28 97.0505 27.7067 96.4771 27.12C95.9038 26.5333 95.6172 25.7866 95.6172 24.88L95.6172 12.96L89.7371 12.96L89.7371 8.16003L95.6172 8.16003L95.6172 0L100.657 0L100.657 8.16003L107.817 8.16003L107.817 12.96L100.657 12.96L100.657 22C100.657 22.8 101.017 23.2 101.737 23.2L107.097 23.2ZM15.2 26.8C13.76 27.9734 11.7334 28.5601 9.12012 28.5601Q6.80005 28.5601 5.15991 27.96Q3.52002 27.36 2.43994 26.46Q1.36011 25.5601 0.780029 24.46Q0.199951 23.36 0 22.3199L4.63989 20.8C4.85327 21.6533 5.30005 22.4 5.97998 23.04Q7 24 9.12012 24Q11 24 11.7 23.42Q12.3047 22.9188 12.387 22.3431L12.387 22.343Q12.3999 22.2524 12.3999 22.16C12.3999 21.8933 12.3401 21.6466 12.22 21.42C12.1001 21.1934 11.8799 20.98 11.5601 20.78C11.24 20.58 10.8066 20.4133 10.26 20.28C9.71338 20.1467 9.02661 20.04 8.19995 19.96Q4.84009 19.6801 2.86011 18.22Q2.2124 17.7426 1.77661 17.1173L1.77637 17.1171Q0.879883 15.8309 0.879883 13.92L0.879883 13.6801Q0.879883 12.2175 1.50488 11.1067L1.50488 11.1067Q1.51245 11.0933 1.52002 11.08Q1.80981 10.5729 2.18164 10.1354Q2.63086 9.60681 3.19995 9.18005Q4.23999 8.40002 5.6001 8Q6.01855 7.87695 6.44458 7.79175L6.44458 7.79175L6.44458 7.79175L6.44458 7.79175Q7.40308 7.59998 8.3999 7.59998Q10.28 7.59998 11.6599 8.06006C12.5801 8.3667 13.3601 8.76672 14 9.26001Q14.96 10 15.5601 10.9Q16.1599 11.8 16.48 12.64L11.9199 14.48C11.6799 13.76 11.2666 13.1934 10.6799 12.78Q9.80005 12.16 8.3999 12.16Q7.12012 12.16 6.47998 12.62Q6.04907 12.9297 5.9082 13.3392L5.9082 13.3394L5.9082 13.3395L5.9082 13.3397Q5.84009 13.5381 5.84009 13.76Q5.84009 14.1453 6.00098 14.4436L6.00122 14.4436Q6.24146 14.8885 6.84009 15.14Q7.84009 15.5601 10.48 15.84Q13.52 16.16 15.4399 17.66Q16.1643 18.2258 16.6152 18.9595L16.6155 18.9597L16.6155 18.9597L16.6155 18.96Q17.3601 20.1713 17.3601 21.84L17.3601 22.08Q17.3601 23.802 16.6289 25.1179Q16.1035 26.0638 15.2 26.8ZM31.5742 28.5601Q35.6191 28.5601 38.1169 26.5941Q38.2375 26.4994 38.3542 26.4Q39.209 25.6731 39.8533 24.7921L39.8533 24.7921Q41.123 23.0553 41.5742 20.72L36.6143 19.48C36.3743 20.7866 35.8477 21.8267 35.0342 22.6C34.2209 23.3733 33.041 23.76 31.4944 23.76C30.7742 23.76 30.0942 23.6467 29.4543 23.42Q28.8179 23.1946 28.2871 22.8199L28.2854 22.8187Q28.0164 22.6285 27.7742 22.4C27.2942 21.9467 26.9143 21.38 26.6343 20.7Q26.2144 19.6801 26.2144 18.36L26.2144 18.12Q26.2144 16.8 26.6343 15.74C26.9143 15.0333 27.2942 14.4333 27.7742 13.9399Q28.1018 13.6033 28.479 13.337Q28.9312 13.0181 29.4543 12.8C30.0942 12.5333 30.7742 12.4 31.4944 12.4C33.041 12.4 34.241 12.8267 35.0942 13.6801C35.9475 14.5333 36.4543 15.5466 36.6143 16.72L41.5742 15.4399Q41.1389 13.1865 39.925 11.4905L39.9248 11.4905L39.9248 11.4902L39.9243 11.4897Q39.2422 10.5369 38.3142 9.76001Q38.1023 9.58264 37.8799 9.4198L37.8792 9.41919Q35.3921 7.59998 31.5742 7.59998Q29.5042 7.59998 27.6729 8.26135Q27.5933 8.29004 27.5144 8.31995Q26.1748 8.82764 25.0737 9.65332L25.0737 9.65344L25.0735 9.65356Q24.613 9.9989 24.1943 10.4Q23.9526 10.6313 23.729 10.8789L23.729 10.8792Q22.6382 12.0868 21.9744 13.6801Q21.1743 15.6 21.1743 18L21.1743 18.48Q21.1743 20.88 21.9744 22.76C22.5076 24.0133 23.241 25.0667 24.1743 25.92C25.1077 26.7733 26.2075 27.4266 27.4744 27.88Q29.3743 28.5601 31.5742 28.5601ZM56.9583 28.1853L56.9573 28.1855L56.9568 28.1857L56.9565 28.1857Q55.542 28.5601 54.0286 28.5601Q52.5151 28.5601 51.1006 28.1857L51.1006 28.1857L51.1006 28.1857L51.0999 28.1855L51.0989 28.1853L51.0984 28.1852L51.0891 28.1826Q50.603 28.0535 50.1287 27.88C48.8887 27.4266 47.7886 26.7667 46.8286 25.9C45.8687 25.0333 45.1086 23.9667 44.5486 22.7C43.9885 21.4333 43.7085 19.9734 43.7085 18.3199L43.7085 17.84C43.7085 16.2134 43.9885 14.7667 44.5486 13.5C45.1086 12.2333 45.8687 11.16 46.8286 10.28C47.7886 9.40002 48.8887 8.73328 50.1287 8.28003Q50.6082 8.10461 51.0999 7.97449Q52.5146 7.59998 54.0286 7.59998Q55.5425 7.59998 56.9573 7.97449Q57.449 8.10461 57.9285 8.28003C59.1685 8.73328 60.2686 9.40002 61.2285 10.28C62.1885 11.16 62.9485 12.2333 63.5085 13.5C64.0686 14.7667 64.3486 16.2134 64.3486 17.84L64.3486 18.3199C64.3486 19.9734 64.0686 21.4333 63.5085 22.7C62.9485 23.9667 62.1885 25.0333 61.2285 25.9C60.2686 26.7667 59.1685 27.4266 57.9285 27.88Q57.4497 28.0551 56.9587 28.1852L56.9583 28.1853ZM80.6228 27.88C79.3828 28.3334 78.0828 28.5601 76.7229 28.5601C75.3628 28.5601 74.0627 28.3334 72.8228 27.88C71.5828 27.4266 70.4829 26.7667 69.5229 25.9C68.5627 25.0333 67.8027 23.9667 67.2429 22.7Q66.4028 20.8 66.4028 18.3199L66.4028 17.84Q66.4028 15.4 67.2429 13.5C67.8027 12.2333 68.5627 11.16 69.5229 10.28Q70.1123 9.73962 70.7722 9.3064L70.7729 9.30603Q71.7246 8.68152 72.8228 8.28003C74.0627 7.82666 75.3628 7.59998 76.7229 7.59998C78.0828 7.59998 79.3828 7.82666 80.6228 8.28003C81.8628 8.73328 82.9629 9.40002 83.9229 10.28C84.8828 11.16 85.6428 12.2333 86.2029 13.5C86.7629 14.7667 87.043 16.2134 87.043 17.84L87.043 18.3199C87.043 19.9734 86.7629 21.4333 86.2029 22.7C85.6428 23.9667 84.8828 25.0333 83.9229 25.9C82.9629 26.7667 81.8628 27.4266 80.6228 27.88ZM54.0286 23.76C53.3086 23.76 52.6287 23.64 51.9885 23.4C51.3486 23.16 50.7886 22.8134 50.3086 22.36Q50.2605 22.3147 50.2139 22.2681L50.2139 22.2678Q49.5605 21.6145 49.1685 20.7Q48.7485 19.72 48.7485 18.48L48.7485 17.6801Q48.7485 16.4399 49.1685 15.46Q49.5605 14.5453 50.2139 13.892Q50.2605 13.8453 50.3086 13.8C50.7886 13.3467 51.3486 13 51.9885 12.76C52.6287 12.52 53.3086 12.4 54.0286 12.4Q55.0005 12.4 55.8752 12.6915L55.8755 12.6917Q55.9727 12.724 56.0686 12.76C56.7085 13 57.2686 13.3467 57.7485 13.8C58.2285 14.2533 58.6086 14.8066 58.8887 15.46C59.1685 16.1133 59.3086 16.8533 59.3086 17.6801L59.3086 18.48C59.3086 19.3066 59.1685 20.0466 58.8887 20.7C58.6086 21.3533 58.2285 21.9066 57.7485 22.36C57.2686 22.8134 56.7085 23.16 56.0686 23.4Q55.9727 23.436 55.8755 23.4684L55.875 23.4685Q55.0005 23.76 54.0286 23.76ZM74.876 23.4684Q74.7788 23.436 74.6829 23.4C74.043 23.16 73.4829 22.8134 73.0029 22.36C72.5229 21.9066 72.1428 21.3533 71.8628 20.7Q71.4429 19.72 71.4429 18.48L71.4429 17.6801Q71.4429 16.4399 71.8628 15.46C72.1428 14.8066 72.5229 14.2533 73.0029 13.8C73.4829 13.3467 74.043 13 74.6829 12.76Q74.7749 12.7255 74.8682 12.6942L74.876 12.6917Q75.7507 12.4 76.7229 12.4Q77.6948 12.4 78.5696 12.6917L78.5776 12.6942Q78.6709 12.7255 78.7629 12.76C79.4028 13 79.9629 13.3467 80.4429 13.8C80.9229 14.2533 81.3027 14.8066 81.5828 15.46Q82.0029 16.4399 82.0029 17.6801L82.0029 18.48Q82.0029 19.72 81.5828 20.7C81.3027 21.3533 80.9229 21.9066 80.4429 22.36C79.9629 22.8134 79.4028 23.16 78.7629 23.4Q78.667 23.436 78.5698 23.4684Q77.6948 23.76 76.7229 23.76Q75.7507 23.76 74.876 23.4684Z" clip-rule="evenodd" fill="#FFFFFF" fill-opacity="1.000000" fill-rule="evenodd"/>
</svg>
