<svg width="24.000000" height="19.504028" viewBox="0 0 24 19.504" fill="none" xmlns="http://www.w3.org/2000/svg" xmlns:xlink="http://www.w3.org/1999/xlink">
	<desc>
			Created with Pixso.
	</desc>
	<defs/>
	<path id="Path" d="M24 2.30896C23.1169 2.70105 22.168 2.96497 21.172 3.08398C22.189 2.47498 22.97 1.51001 23.337 0.359985C22.386 0.92395 21.332 1.33398 20.21 1.55505C19.313 0.598022 18.032 0 16.616 0C13.437 0 11.101 2.96594 11.819 6.04504C7.72803 5.83997 4.09998 3.88 1.67102 0.901001C0.380981 3.11401 1.00195 6.00903 3.19397 7.47498C2.38794 7.44897 1.62805 7.22803 0.964966 6.85901C0.911011 9.14001 2.54602 11.274 4.91394 11.749C4.22095 11.937 3.46204 11.981 2.68994 11.833C3.31604 13.7889 5.13403 15.212 7.29004 15.252C5.21997 16.875 2.61206 17.6 0 17.292C2.17896 18.689 4.76794 19.504 7.54797 19.504C16.6899 19.504 21.855 11.783 21.543 4.85803C22.505 4.16296 23.34 3.29602 24 2.30896Z" fill="#FCB72B" fill-opacity="1.000000" fill-rule="nonzero"/>
</svg>
